<svg width="14" height="14" viewBox="0 0 14 14" fill="none" xmlns="http://www.w3.org/2000/svg">
<path d="M13.1891 5.16509L9.22187 4.58853L7.44844 0.993219C7.4 0.894781 7.32031 0.815094 7.22187 0.766656C6.975 0.644781 6.675 0.746344 6.55156 0.993219L4.77812 4.58853L0.810936 5.16509C0.701561 5.18072 0.601561 5.23228 0.524999 5.31041C0.432439 5.40554 0.381434 5.53353 0.383192 5.66625C0.38495 5.79897 0.439327 5.92557 0.534374 6.01822L3.40469 8.81666L2.72656 12.7682C2.71066 12.8601 2.72083 12.9547 2.75592 13.0411C2.79102 13.1276 2.84963 13.2024 2.92511 13.2572C3.00059 13.3121 3.08992 13.3446 3.18297 13.3513C3.27602 13.3579 3.36907 13.3383 3.45156 13.2948L7 11.4292L10.5484 13.2948C10.6453 13.3463 10.7578 13.3635 10.8656 13.3448C11.1375 13.2979 11.3203 13.0401 11.2734 12.7682L10.5953 8.81666L13.4656 6.01822C13.5437 5.94166 13.5953 5.84166 13.6109 5.73228C13.6531 5.45884 13.4625 5.20572 13.1891 5.16509Z" fill="#FEA250"/>
</svg>
